G04*
G04 #@! TF.GenerationSoftware,Altium Limited,Altium Designer,20.0.12 (288)*
G04*
G04 Layer_Color=8388736*
%FSLAX44Y44*%
%MOMM*%
G71*
G01*
G75*
%ADD16R,1.6032X1.4032*%
%ADD17R,1.7032X1.7032*%
%ADD18C,1.7032*%
%ADD19C,3.2032*%
%ADD20R,2.4032X3.2032*%
%ADD21O,2.4032X3.2032*%
%ADD22R,1.7032X1.7032*%
%ADD23R,2.2032X2.2032*%
%ADD24C,2.0232*%
%ADD25R,2.2032X2.2032*%
%ADD26C,2.2032*%
%ADD27C,1.9032*%
%ADD28R,1.9032X1.9032*%
%ADD29C,5.2032*%
%ADD30C,1.6032*%
D16*
X510540Y1078120D02*
D03*
Y1096120D02*
D03*
D17*
X367030Y862330D02*
D03*
X386080Y1038860D02*
D03*
D18*
X367030Y887730D02*
D03*
Y913130D02*
D03*
Y938530D02*
D03*
Y963930D02*
D03*
Y989330D02*
D03*
X954481Y1056621D02*
D03*
X979881D02*
D03*
X1005281D02*
D03*
X1030681D02*
D03*
X1056081D02*
D03*
X1081481D02*
D03*
X1106881D02*
D03*
X1132281D02*
D03*
Y1209021D02*
D03*
X1106881D02*
D03*
X1081481D02*
D03*
X1056081D02*
D03*
X1030681D02*
D03*
X1005281D02*
D03*
X979881D02*
D03*
X954481D02*
D03*
X929081D02*
D03*
X875030Y1064260D02*
D03*
X855980Y1076960D02*
D03*
X875030Y1089660D02*
D03*
X859790Y1156970D02*
D03*
X840740Y1169670D02*
D03*
X859790Y1182370D02*
D03*
X478790Y883920D02*
D03*
X491490Y864870D02*
D03*
X504190Y883920D02*
D03*
X1148398Y796813D02*
D03*
Y761313D02*
D03*
X1148080Y877770D02*
D03*
Y913270D02*
D03*
X360680Y1089660D02*
D03*
X386080D02*
D03*
X360680Y1064260D02*
D03*
X386080D02*
D03*
X360680Y1038860D02*
D03*
D19*
X383540Y809460D02*
D03*
Y759460D02*
D03*
X548670Y1176020D02*
D03*
X778670D02*
D03*
D20*
X571170Y1070610D02*
D03*
D21*
X598170D02*
D03*
X625170D02*
D03*
D22*
X929081Y1056621D02*
D03*
D23*
X575310Y982980D02*
D03*
X1013060Y879262D02*
D03*
X961790Y710326D02*
D03*
X1013060Y837571D02*
D03*
X963060Y777240D02*
D03*
X1043070D02*
D03*
X1049820Y838200D02*
D03*
X736600Y960120D02*
D03*
D24*
X625310Y982980D02*
D03*
X963060Y879262D02*
D03*
X1011790Y710326D02*
D03*
X711200Y1040930D02*
D03*
X777240D02*
D03*
X963060Y837571D02*
D03*
X1013060Y777240D02*
D03*
X746760Y772560D02*
D03*
X786130Y825100D02*
D03*
X1093070Y777240D02*
D03*
X1099820Y838200D02*
D03*
D25*
X711200Y1090930D02*
D03*
X777240D02*
D03*
X746760Y822560D02*
D03*
X786130Y775100D02*
D03*
X564790Y720840D02*
D03*
X479700D02*
D03*
D26*
X736600Y1005120D02*
D03*
X671600Y960120D02*
D03*
Y1005120D02*
D03*
X519790Y720840D02*
D03*
X564790Y655840D02*
D03*
X519790D02*
D03*
X434700Y720840D02*
D03*
X479700Y655840D02*
D03*
X434700D02*
D03*
X364490Y693720D02*
D03*
Y667720D02*
D03*
X641650Y666750D02*
D03*
X615650D02*
D03*
X727040Y662940D02*
D03*
X701040D02*
D03*
D27*
X913930Y661670D02*
D03*
Y687070D02*
D03*
Y712470D02*
D03*
Y737870D02*
D03*
Y763270D02*
D03*
Y788670D02*
D03*
Y814070D02*
D03*
Y839470D02*
D03*
Y864870D02*
D03*
Y890270D02*
D03*
Y915670D02*
D03*
Y941070D02*
D03*
Y966470D02*
D03*
Y991870D02*
D03*
X836930Y661670D02*
D03*
Y687070D02*
D03*
Y712470D02*
D03*
Y737870D02*
D03*
Y763270D02*
D03*
Y788670D02*
D03*
Y814070D02*
D03*
Y839470D02*
D03*
Y864870D02*
D03*
Y890270D02*
D03*
Y915670D02*
D03*
Y941070D02*
D03*
Y966470D02*
D03*
D28*
Y991870D02*
D03*
D29*
X459180Y1139180D02*
D03*
X424180Y1186180D02*
D03*
X489180D02*
D03*
D30*
X661670Y890270D02*
D03*
X585470D02*
D03*
X584200Y867410D02*
D03*
X660400D02*
D03*
X661670Y914400D02*
D03*
X585470D02*
D03*
X582930Y843949D02*
D03*
X659130D02*
D03*
Y789940D02*
D03*
X582930D02*
D03*
X657860Y817324D02*
D03*
X581660D02*
D03*
X1024890Y744091D02*
D03*
X948690D02*
D03*
X1024890Y806302D02*
D03*
X948690D02*
D03*
X782320Y914400D02*
D03*
Y990600D02*
D03*
X807720Y915670D02*
D03*
Y991870D02*
D03*
X949960Y652780D02*
D03*
X1026160D02*
D03*
X948690Y677320D02*
D03*
X1024890D02*
D03*
X796290Y717550D02*
D03*
Y641350D02*
D03*
X835660Y633730D02*
D03*
X911860D02*
D03*
X948690Y915416D02*
D03*
X1024890D02*
D03*
X948690Y943102D02*
D03*
X1024890D02*
D03*
X947420Y969810D02*
D03*
X1023620D02*
D03*
X935990Y995680D02*
D03*
X1012190D02*
D03*
X762000Y641350D02*
D03*
Y717550D02*
D03*
X657860Y760730D02*
D03*
X581660D02*
D03*
X674370Y646430D02*
D03*
Y722630D02*
D03*
M02*
