G04*
G04 #@! TF.GenerationSoftware,Altium Limited,Altium Designer,20.0.12 (288)*
G04*
G04 Layer_Color=16711935*
%FSLAX44Y44*%
%MOMM*%
G71*
G01*
G75*
%ADD11C,0.2000*%
%ADD12C,0.1270*%
%ADD46C,0.1000*%
D11*
X533670Y1071610D02*
G03*
X533670Y1071610I-1000J0D01*
G01*
X929681Y1034821D02*
G03*
X929681Y1034821I-1000J0D01*
G01*
D12*
X715280Y982620D02*
G03*
X715280Y982620I-11180J0D01*
G01*
X553470Y688340D02*
G03*
X553470Y688340I-11180J0D01*
G01*
X468380D02*
G03*
X468380Y688340I-11180J0D01*
G01*
X546170Y1053710D02*
Y1099710D01*
Y1053710D02*
X650170D01*
Y1099710D01*
X546170D02*
X650170D01*
X905681Y1039821D02*
Y1225821D01*
X1155681Y1039821D02*
Y1225821D01*
X905681Y1039821D02*
X1155681D01*
X905681Y1225821D02*
X1155681D01*
X734050Y952670D02*
Y1012570D01*
X674150D02*
X734050D01*
X674150Y952670D02*
Y1012570D01*
Y952670D02*
X734050D01*
X512340Y718290D02*
X572240D01*
X512340Y658390D02*
Y718290D01*
Y658390D02*
X572240D01*
Y718290D01*
X427250D02*
X487150D01*
X427250Y658390D02*
Y718290D01*
Y658390D02*
X487150D01*
Y718290D01*
X349180Y1141180D02*
Y1231180D01*
Y1141180D02*
X492180D01*
Y1231180D01*
X349180D02*
X492180D01*
X1138398Y807173D02*
X1158398D01*
X1138398Y751293D02*
Y807173D01*
Y751293D02*
X1158398D01*
Y807173D01*
X1138080Y867410D02*
X1158080D01*
Y923290D01*
X1138080D02*
X1158080D01*
X1138080Y867410D02*
Y923290D01*
D46*
X418540Y734460D02*
Y834460D01*
X343540Y734460D02*
X418540D01*
X343540D02*
Y834460D01*
X418540D01*
X503540Y1076370D02*
X517540D01*
X503540Y1097870D02*
X517540D01*
X503540Y1076370D02*
Y1097870D01*
X517540Y1076370D02*
Y1097870D01*
M02*
