G04*
G04 #@! TF.GenerationSoftware,Altium Limited,Altium Designer,20.0.12 (288)*
G04*
G04 Layer_Color=32768*
%FSLAX44Y44*%
%MOMM*%
G71*
G01*
G75*
%ADD46C,0.1000*%
%ADD47C,0.0500*%
G36*
X341040Y731960D02*
Y836960D01*
X421040D01*
Y731960D01*
X341040D01*
D02*
G37*
D46*
X501040Y1069620D02*
X520040D01*
X501040Y1104620D02*
X520040D01*
X501040Y1069620D02*
Y1104620D01*
X520040Y1069620D02*
Y1104620D01*
X510540Y1082120D02*
Y1092120D01*
X505540Y1087120D02*
X515540D01*
D47*
X542970Y1049340D02*
Y1104140D01*
Y1049340D02*
X653370D01*
Y1104140D01*
X542970D02*
X653370D01*
X903181Y1037321D02*
Y1228321D01*
X1158181Y1037321D02*
Y1228321D01*
X903181Y1037321D02*
X1158181D01*
X903181Y1228321D02*
X1158181D01*
X659650Y1016910D02*
X685445D01*
X729555D02*
X749820D01*
Y947060D02*
Y1016910D01*
X685445D02*
X729555D01*
X659650Y947060D02*
Y1016910D01*
Y947060D02*
X749820D01*
X508000Y643890D02*
Y669685D01*
Y713795D02*
Y734060D01*
X577850D01*
X508000Y669685D02*
Y713795D01*
Y643890D02*
X577850D01*
Y734060D01*
X422910Y643890D02*
Y669685D01*
Y713795D02*
Y734060D01*
X492760D01*
X422910Y669685D02*
Y713795D01*
Y643890D02*
X492760D01*
Y734060D01*
X346680Y1123880D02*
Y1233680D01*
Y1123880D02*
X502360D01*
Y1233680D01*
X346680D02*
X502360D01*
X1160898Y750023D02*
Y808443D01*
X1135898Y750023D02*
X1160898D01*
X1135898D02*
Y808443D01*
X1160898D01*
X1135580Y866140D02*
Y924560D01*
X1160580D01*
Y866140D02*
Y924560D01*
X1135580Y866140D02*
X1160580D01*
M02*
