G04*
G04 #@! TF.GenerationSoftware,Altium Limited,Altium Designer,20.0.12 (288)*
G04*
G04 Layer_Color=65535*
%FSLAX44Y44*%
%MOMM*%
G71*
G01*
G75*
%ADD10C,0.4000*%
%ADD11C,0.2000*%
%ADD12C,0.1270*%
%ADD13C,0.2540*%
%ADD14C,0.2032*%
D10*
X398540Y818460D02*
G03*
X398540Y818460I-1000J0D01*
G01*
D11*
X533670Y1071610D02*
G03*
X533670Y1071610I-1000J0D01*
G01*
X929681Y1034821D02*
G03*
X929681Y1034821I-1000J0D01*
G01*
X752430Y959909D02*
G03*
X752430Y959909I-1000J0D01*
G01*
X566001Y735670D02*
G03*
X566001Y735670I-1000J0D01*
G01*
X480911D02*
G03*
X480911Y735670I-1000J0D01*
G01*
X354330Y1002030D02*
X379730D01*
X354330Y849630D02*
X379730D01*
X354330D02*
Y1002030D01*
X379730Y849630D02*
Y1002030D01*
X419540Y733460D02*
Y835460D01*
X342540Y733460D02*
X419540D01*
X342540D02*
Y835460D01*
X419540D01*
X528320Y1127760D02*
Y1223010D01*
X798830D01*
Y1127760D02*
Y1223010D01*
X528320Y1127760D02*
X798830D01*
X648970Y890270D02*
Y897890D01*
X598170D02*
X648970D01*
X598170Y882650D02*
Y897890D01*
Y882650D02*
X648970D01*
Y890270D01*
X595884D02*
X598170D01*
X648970D02*
X651256D01*
X647700Y867410D02*
X649986D01*
X594614D02*
X596900D01*
X647700Y859790D02*
Y867410D01*
X596900Y859790D02*
X647700D01*
X596900D02*
Y875030D01*
X647700D01*
Y867410D02*
Y875030D01*
X648970Y914400D02*
Y922020D01*
X598170D02*
X648970D01*
X598170Y906780D02*
Y922020D01*
Y906780D02*
X648970D01*
Y914400D01*
X595884D02*
X598170D01*
X648970D02*
X651256D01*
X646430Y843949D02*
X648716D01*
X593344D02*
X595630D01*
X646430Y836329D02*
Y843949D01*
X595630Y836329D02*
X646430D01*
X595630D02*
Y851569D01*
X646430D01*
Y843949D02*
Y851569D01*
X593344Y789940D02*
X595630D01*
X646430D02*
X648716D01*
X595630D02*
Y797560D01*
X646430D01*
Y782320D02*
Y797560D01*
X595630Y782320D02*
X646430D01*
X595630D02*
Y789940D01*
X592074Y817324D02*
X594360D01*
X645160D02*
X647446D01*
X594360D02*
Y824944D01*
X645160D01*
Y809704D02*
Y824944D01*
X594360Y809704D02*
X645160D01*
X594360D02*
Y817324D01*
X959104Y744091D02*
X961390D01*
X1012190D02*
X1014476D01*
X961390D02*
Y751711D01*
X1012190D01*
Y736471D02*
Y751711D01*
X961390Y736471D02*
X1012190D01*
X961390D02*
Y744091D01*
X959104Y806302D02*
X961390D01*
X1012190D02*
X1014476D01*
X961390D02*
Y813922D01*
X1012190D01*
Y798682D02*
Y813922D01*
X961390Y798682D02*
X1012190D01*
X961390D02*
Y806302D01*
X782320Y977900D02*
Y980186D01*
Y924814D02*
Y927100D01*
Y977900D02*
X789940D01*
Y927100D02*
Y977900D01*
X774700Y927100D02*
X789940D01*
X774700D02*
Y977900D01*
X782320D01*
X807720Y979170D02*
Y981456D01*
Y926084D02*
Y928370D01*
Y979170D02*
X815340D01*
Y928370D02*
Y979170D01*
X800100Y928370D02*
X815340D01*
X800100D02*
Y979170D01*
X807720D01*
X1013460Y652780D02*
X1015746D01*
X960374D02*
X962660D01*
X1013460Y645160D02*
Y652780D01*
X962660Y645160D02*
X1013460D01*
X962660D02*
Y660400D01*
X1013460D01*
Y652780D02*
Y660400D01*
X1012190Y677320D02*
X1014476D01*
X959104D02*
X961390D01*
X1012190Y669700D02*
Y677320D01*
X961390Y669700D02*
X1012190D01*
X961390D02*
Y684940D01*
X1012190D01*
Y677320D02*
Y684940D01*
X796290Y651764D02*
Y654050D01*
Y704850D02*
Y707136D01*
X788670Y654050D02*
X796290D01*
X788670D02*
Y704850D01*
X803910D01*
Y654050D02*
Y704850D01*
X796290Y654050D02*
X803910D01*
X899160Y633730D02*
X901446D01*
X846074D02*
X848360D01*
X899160Y626110D02*
Y633730D01*
X848360Y626110D02*
X899160D01*
X848360D02*
Y641350D01*
X899160D01*
Y633730D02*
Y641350D01*
X1012190Y915416D02*
X1014476D01*
X959104D02*
X961390D01*
X1012190Y907796D02*
Y915416D01*
X961390Y907796D02*
X1012190D01*
X961390D02*
Y923036D01*
X1012190D01*
Y915416D02*
Y923036D01*
X1012190Y943102D02*
X1014476D01*
X959104D02*
X961390D01*
X1012190Y935482D02*
Y943102D01*
X961390Y935482D02*
X1012190D01*
X961390D02*
Y950722D01*
X1012190D01*
Y943102D02*
Y950722D01*
X1010920Y969810D02*
X1013206D01*
X957834D02*
X960120D01*
X1010920Y962190D02*
Y969810D01*
X960120Y962190D02*
X1010920D01*
X960120D02*
Y977430D01*
X1010920D01*
Y969810D02*
Y977430D01*
X999490Y995680D02*
X1001776D01*
X946404D02*
X948690D01*
X999490Y988060D02*
Y995680D01*
X948690Y988060D02*
X999490D01*
X948690D02*
Y1003300D01*
X999490D01*
Y995680D02*
Y1003300D01*
X762000Y704850D02*
Y707136D01*
Y651764D02*
Y654050D01*
Y704850D02*
X769620D01*
Y654050D02*
Y704850D01*
X754380Y654050D02*
X769620D01*
X754380D02*
Y704850D01*
X762000D01*
X592074Y760730D02*
X594360D01*
X645160D02*
X647446D01*
X594360D02*
Y768350D01*
X645160D01*
Y753110D02*
Y768350D01*
X594360Y753110D02*
X645160D01*
X594360D02*
Y760730D01*
X674370Y709930D02*
Y712216D01*
Y656844D02*
Y659130D01*
Y709930D02*
X681990D01*
Y659130D02*
Y709930D01*
X666750Y659130D02*
X681990D01*
X666750D02*
Y709930D01*
X674370D01*
X398780Y1053677D02*
Y1102360D01*
Y1026160D02*
Y1102360D01*
X347980Y1026160D02*
Y1102360D01*
Y1026160D02*
X398780D01*
X347980Y1102360D02*
X398780D01*
X504540Y1087120D02*
X516540D01*
D12*
X891450Y1097981D02*
G03*
X849526Y1084762I-16419J-21016D01*
G01*
X849525Y1069162D02*
G03*
X891450Y1055943I25505J7798D01*
G01*
X876209Y1190691D02*
G03*
X834286Y1177473I-16419J-21016D01*
G01*
X834285Y1161872D02*
G03*
X876210Y1148653I25505J7798D01*
G01*
X715280Y982620D02*
G03*
X715280Y982620I-11180J0D01*
G01*
X553470Y688340D02*
G03*
X553470Y688340I-11180J0D01*
G01*
X468380D02*
G03*
X468380Y688340I-11180J0D01*
G01*
X499288Y858415D02*
G03*
X512507Y900340I-7798J25505D01*
G01*
X470469Y900340D02*
G03*
X483688Y858416I21016J-16419D01*
G01*
X546170Y1053710D02*
Y1099710D01*
Y1053710D02*
X650170D01*
Y1099710D01*
X546170D02*
X650170D01*
X905681Y1039821D02*
Y1225821D01*
X1155681Y1039821D02*
Y1225821D01*
X905681Y1039821D02*
X1155681D01*
X905681Y1225821D02*
X1155681D01*
X877570Y1050410D02*
Y1103510D01*
X891540Y1056014D02*
Y1097910D01*
X862330Y1143120D02*
Y1196220D01*
X876300Y1148724D02*
Y1190620D01*
X684100Y952620D02*
X724100D01*
X674100Y972620D02*
Y992620D01*
X734100Y972620D02*
Y992620D01*
X684100Y1012620D02*
X724100D01*
X572290Y668340D02*
Y708340D01*
X532290Y658340D02*
X552290D01*
X532290Y718340D02*
X552290D01*
X512290Y668340D02*
Y708340D01*
X487200Y668340D02*
Y708340D01*
X447200Y658340D02*
X467200D01*
X447200Y718340D02*
X467200D01*
X427200Y668340D02*
Y708340D01*
X470540Y900430D02*
X512436D01*
X464940Y886460D02*
X518040D01*
X349180Y1141180D02*
Y1231180D01*
Y1141180D02*
X435180D01*
X483180D02*
X492180D01*
Y1163180D01*
Y1209180D02*
Y1231180D01*
X349180D02*
X492180D01*
X1158398Y751293D02*
Y807173D01*
X1138398Y751293D02*
Y807173D01*
X1138080Y867410D02*
Y923290D01*
X1158080Y867410D02*
Y923290D01*
D13*
X351247Y698922D02*
G03*
X351873Y661740I23403J-18202D01*
G01*
X377828Y662939D02*
G03*
X378460Y698500I-23403J18202D01*
G01*
X646852Y679993D02*
G03*
X609669Y679367I-18202J-23403D01*
G01*
X610869Y653412D02*
G03*
X646430Y652780I18202J23403D01*
G01*
X732242Y676183D02*
G03*
X695060Y675557I-18202J-23403D01*
G01*
X696259Y649602D02*
G03*
X731820Y648970I18202J23403D01*
G01*
X562210Y998220D02*
X582530D01*
X562210Y967740D02*
Y998220D01*
Y967740D02*
X582530D01*
X618090D02*
X637140D01*
Y998220D01*
X618090D02*
X637140D01*
X582530Y967740D02*
X618090D01*
X582530Y998220D02*
X618090D01*
X1005840Y864022D02*
X1026160D01*
Y894502D01*
X1005840D02*
X1026160D01*
X951230D02*
X970280D01*
X951230Y864022D02*
Y894502D01*
Y864022D02*
X970280D01*
Y894502D02*
X1005840D01*
X970280Y864022D02*
X1005840D01*
X948690Y725566D02*
X969010D01*
X948690Y695086D02*
Y725566D01*
Y695086D02*
X969010D01*
X1004570D02*
X1023620D01*
Y725566D01*
X1004570D02*
X1023620D01*
X969010Y695086D02*
X1004570D01*
X969010Y725566D02*
X1004570D01*
X726440Y1083710D02*
Y1104030D01*
X695960D02*
X726440D01*
X695960Y1083710D02*
Y1104030D01*
Y1029100D02*
Y1048150D01*
Y1029100D02*
X726440D01*
Y1048150D01*
X695960D02*
Y1083710D01*
X726440Y1048150D02*
Y1083710D01*
X792480D02*
Y1104030D01*
X762000D02*
X792480D01*
X762000Y1083710D02*
Y1104030D01*
Y1029100D02*
Y1048150D01*
Y1029100D02*
X792480D01*
Y1048150D01*
X762000D02*
Y1083710D01*
X792480Y1048150D02*
Y1083710D01*
X1005840Y822331D02*
X1026160D01*
Y852811D01*
X1005840D02*
X1026160D01*
X951230D02*
X970280D01*
X951230Y822331D02*
Y852811D01*
Y822331D02*
X970280D01*
Y852811D02*
X1005840D01*
X970280Y822331D02*
X1005840D01*
X949960Y792480D02*
X970280D01*
X949960Y762000D02*
Y792480D01*
Y762000D02*
X970280D01*
X1005840D02*
X1024890D01*
Y792480D01*
X1005840D02*
X1024890D01*
X970280Y762000D02*
X1005840D01*
X970280Y792480D02*
X1005840D01*
X762000Y815340D02*
Y835660D01*
X731520D02*
X762000D01*
X731520Y815340D02*
Y835660D01*
Y760730D02*
Y779780D01*
Y760730D02*
X762000D01*
Y779780D01*
X731520D02*
Y815340D01*
X762000Y779780D02*
Y815340D01*
X770890Y762000D02*
Y782320D01*
Y762000D02*
X801370D01*
Y782320D01*
Y817880D02*
Y836930D01*
X770890D02*
X801370D01*
X770890Y817880D02*
Y836930D01*
X801370Y782320D02*
Y817880D01*
X770890Y782320D02*
Y817880D01*
X1029970Y792480D02*
X1050290D01*
X1029970Y762000D02*
Y792480D01*
Y762000D02*
X1050290D01*
X1085850D02*
X1104900D01*
Y792480D01*
X1085850D02*
X1104900D01*
X1050290Y762000D02*
X1085850D01*
X1050290Y792480D02*
X1085850D01*
X1036720Y853440D02*
X1057040D01*
X1036720Y822960D02*
Y853440D01*
Y822960D02*
X1057040D01*
X1092600D02*
X1111650D01*
Y853440D01*
X1092600D02*
X1111650D01*
X1057040Y822960D02*
X1092600D01*
X1057040Y853440D02*
X1092600D01*
X826770Y650240D02*
Y1003300D01*
Y650240D02*
X923290D01*
Y1003300D01*
X826770D02*
X923290D01*
X421640Y1001869D02*
Y1016864D01*
X429138D01*
X431637Y1014365D01*
Y1009366D01*
X429138Y1006867D01*
X421640D01*
X439134Y1011865D02*
X444133D01*
X446632Y1009366D01*
Y1001869D01*
X439134D01*
X436635Y1004368D01*
X439134Y1006867D01*
X446632D01*
X454129Y1014365D02*
Y1011865D01*
X451630D01*
X456629D01*
X454129D01*
Y1004368D01*
X456629Y1001869D01*
X464126Y1011865D02*
Y1001869D01*
Y1006867D01*
X466625Y1009366D01*
X469125Y1011865D01*
X471624D01*
X479121Y1001869D02*
X484120D01*
X481621D01*
Y1011865D01*
X479121D01*
X501614D02*
X494117D01*
X491617Y1009366D01*
Y1004368D01*
X494117Y1001869D01*
X501614D01*
X506613D02*
X511611D01*
X509112D01*
Y1011865D01*
X506613D01*
X521608D02*
X526606D01*
X529105Y1009366D01*
Y1001869D01*
X521608D01*
X519109Y1004368D01*
X521608Y1006867D01*
X529105D01*
X421640Y992774D02*
X431637D01*
X426638D01*
Y977779D01*
X436635D02*
X441633D01*
X439134D01*
Y987775D01*
X436635D01*
X451630D02*
X456629D01*
X459128Y985276D01*
Y977779D01*
X451630D01*
X449131Y980278D01*
X451630Y982777D01*
X459128D01*
X469125Y972780D02*
X471624D01*
X474123Y975279D01*
Y987775D01*
X466625D01*
X464126Y985276D01*
Y980278D01*
X466625Y977779D01*
X474123D01*
X481621D02*
X486619D01*
X489118Y980278D01*
Y985276D01*
X486619Y987775D01*
X481621D01*
X479121Y985276D01*
Y980278D01*
X481621Y977779D01*
X431637Y961186D02*
X429138Y963685D01*
X424139D01*
X421640Y961186D01*
Y958687D01*
X424139Y956188D01*
X429138D01*
X431637Y953688D01*
Y951189D01*
X429138Y948690D01*
X424139D01*
X421640Y951189D01*
X446632Y963685D02*
X436635D01*
Y948690D01*
X446632D01*
X436635Y956188D02*
X441633D01*
X461627Y961186D02*
X459128Y963685D01*
X454129D01*
X451630Y961186D01*
Y951189D01*
X454129Y948690D01*
X459128D01*
X461627Y951189D01*
X491617Y948690D02*
X481621D01*
X491617Y958687D01*
Y961186D01*
X489118Y963685D01*
X484120D01*
X481621Y961186D01*
X496616D02*
X499115Y963685D01*
X504113D01*
X506613Y961186D01*
Y951189D01*
X504113Y948690D01*
X499115D01*
X496616Y951189D01*
Y961186D01*
X511611Y948690D02*
X521608Y958687D01*
X536603Y948690D02*
X526606D01*
X536603Y958687D01*
Y961186D01*
X534104Y963685D01*
X529105D01*
X526606Y961186D01*
X541601Y948690D02*
X546600D01*
X544100D01*
Y963685D01*
X541601Y961186D01*
X383544Y858522D02*
Y873757D01*
X391162D01*
X393701Y871218D01*
Y866140D01*
X391162Y863601D01*
X383544D01*
X408936Y858522D02*
X398779D01*
X408936Y868679D01*
Y871218D01*
X406397Y873757D01*
X401318D01*
X398779Y871218D01*
X673107Y885192D02*
Y900427D01*
X680724D01*
X683263Y897888D01*
Y892810D01*
X680724Y890271D01*
X673107D01*
X678185D02*
X683263Y885192D01*
X698498D02*
X688342D01*
X698498Y895349D01*
Y897888D01*
X695959Y900427D01*
X690881D01*
X688342Y897888D01*
X713733Y885192D02*
X703577D01*
X713733Y895349D01*
Y897888D01*
X711194Y900427D01*
X706116D01*
X703577Y897888D01*
X579882Y930656D02*
Y945891D01*
X587500D01*
X590039Y943352D01*
Y938273D01*
X587500Y935734D01*
X579882D01*
X584960D02*
X590039Y930656D01*
X595117D02*
X600195D01*
X597656D01*
Y945891D01*
X595117Y943352D01*
X1130707Y843278D02*
X1128168Y845817D01*
X1123090D01*
X1120550Y843278D01*
Y833122D01*
X1123090Y830583D01*
X1128168D01*
X1130707Y833122D01*
X1135785Y830583D02*
Y840739D01*
X1140864Y845817D01*
X1145942Y840739D01*
Y830583D01*
Y838200D01*
X1135785D01*
X1151020Y830583D02*
Y845817D01*
X1158638D01*
X1161177Y843278D01*
Y838200D01*
X1158638Y835661D01*
X1151020D01*
X1166255Y830583D02*
X1171334D01*
X1168795D01*
Y845817D01*
X1166255Y843278D01*
X1178951Y830583D02*
X1184030D01*
X1181491D01*
Y845817D01*
X1178951Y843278D01*
X1113792Y750578D02*
X1111252Y748039D01*
Y742960D01*
X1113792Y740421D01*
X1123948D01*
X1126488Y742960D01*
Y748039D01*
X1123948Y750578D01*
X1126488Y755656D02*
X1116331D01*
X1111252Y760734D01*
X1116331Y765813D01*
X1126488D01*
X1118870D01*
Y755656D01*
X1126488Y770891D02*
X1111252D01*
Y778509D01*
X1113792Y781048D01*
X1118870D01*
X1121409Y778509D01*
Y770891D01*
X1126488Y786126D02*
Y791205D01*
Y788665D01*
X1111252D01*
X1113792Y786126D01*
Y798822D02*
X1111252Y801361D01*
Y806440D01*
X1113792Y808979D01*
X1123948D01*
X1126488Y806440D01*
Y801361D01*
X1123948Y798822D01*
X1113792D01*
X588018Y1032512D02*
Y1047747D01*
X595636D01*
X598175Y1045208D01*
Y1040129D01*
X595636Y1037590D01*
X588018D01*
X593097D02*
X598175Y1032512D01*
X610871D02*
X605793D01*
X603253Y1035051D01*
Y1040129D01*
X605793Y1042668D01*
X610871D01*
X613410Y1040129D01*
Y1037590D01*
X603253D01*
X623567Y1027433D02*
X626106D01*
X628645Y1029973D01*
Y1042668D01*
X621028D01*
X618488Y1040129D01*
Y1035051D01*
X621028Y1032512D01*
X628645D01*
X633723D02*
X638802D01*
X636263D01*
Y1047747D01*
X633723Y1045208D01*
X1042676Y798685D02*
Y813920D01*
X1050293D01*
X1052833Y811381D01*
Y806302D01*
X1050293Y803763D01*
X1042676D01*
X1047754D02*
X1052833Y798685D01*
X1068068D02*
X1057911D01*
X1068068Y808841D01*
Y811381D01*
X1065528Y813920D01*
X1060450D01*
X1057911Y811381D01*
X1073146Y798685D02*
X1078224D01*
X1075685D01*
Y813920D01*
X1073146Y811381D01*
X524517Y784863D02*
Y800098D01*
X532134D01*
X534673Y797558D01*
Y792480D01*
X532134Y789941D01*
X524517D01*
X529595D02*
X534673Y784863D01*
X549908D02*
X539752D01*
X549908Y795019D01*
Y797558D01*
X547369Y800098D01*
X542291D01*
X539752Y797558D01*
X554987D02*
X557526Y800098D01*
X562604D01*
X565143Y797558D01*
Y787402D01*
X562604Y784863D01*
X557526D01*
X554987Y787402D01*
Y797558D01*
X748027Y684536D02*
X732792D01*
Y692154D01*
X735332Y694693D01*
X740410D01*
X742949Y692154D01*
Y684536D01*
Y689614D02*
X748027Y694693D01*
Y699771D02*
Y704850D01*
Y702310D01*
X732792D01*
X735332Y699771D01*
X745488Y712467D02*
X748027Y715006D01*
Y720085D01*
X745488Y722624D01*
X735332D01*
X732792Y720085D01*
Y715006D01*
X735332Y712467D01*
X737871D01*
X740410Y715006D01*
Y722624D01*
X524516Y754382D02*
Y769617D01*
X532134D01*
X534673Y767078D01*
Y762000D01*
X532134Y759461D01*
X524516D01*
X529594D02*
X534673Y754382D01*
X539751D02*
X544830D01*
X542290D01*
Y769617D01*
X539751Y767078D01*
X552447D02*
X554986Y769617D01*
X560065D01*
X562604Y767078D01*
Y764539D01*
X560065Y762000D01*
X562604Y759461D01*
Y756922D01*
X560065Y754382D01*
X554986D01*
X552447Y756922D01*
Y759461D01*
X554986Y762000D01*
X552447Y764539D01*
Y767078D01*
X554986Y762000D02*
X560065D01*
X671836Y735332D02*
Y750567D01*
X679454D01*
X681993Y748028D01*
Y742950D01*
X679454Y740411D01*
X671836D01*
X676915D02*
X681993Y735332D01*
X687071D02*
X692150D01*
X689610D01*
Y750567D01*
X687071Y748028D01*
X699767Y750567D02*
X709924D01*
Y748028D01*
X699767Y737872D01*
Y735332D01*
X1041406Y646014D02*
Y661249D01*
X1049024D01*
X1051563Y658710D01*
Y653631D01*
X1049024Y651092D01*
X1041406D01*
X1046485D02*
X1051563Y646014D01*
X1056641D02*
X1061720D01*
X1059180D01*
Y661249D01*
X1056641Y658710D01*
X1079494Y661249D02*
X1074416Y658710D01*
X1069337Y653631D01*
Y648553D01*
X1071876Y646014D01*
X1076955D01*
X1079494Y648553D01*
Y651092D01*
X1076955Y653631D01*
X1069337D01*
X1042676Y670972D02*
Y686207D01*
X1050294D01*
X1052833Y683668D01*
Y678590D01*
X1050294Y676051D01*
X1042676D01*
X1047755D02*
X1052833Y670972D01*
X1057911D02*
X1062990D01*
X1060451D01*
Y686207D01*
X1057911Y683668D01*
X1080764Y686207D02*
X1070607D01*
Y678590D01*
X1075686Y681129D01*
X1078225D01*
X1080764Y678590D01*
Y673512D01*
X1078225Y670972D01*
X1073146D01*
X1070607Y673512D01*
X784866Y614683D02*
Y629917D01*
X792484D01*
X795023Y627378D01*
Y622300D01*
X792484Y619761D01*
X784866D01*
X789945D02*
X795023Y614683D01*
X800101D02*
X805180D01*
X802640D01*
Y629917D01*
X800101Y627378D01*
X820415Y614683D02*
Y629917D01*
X812797Y622300D01*
X822954D01*
X925836Y623573D02*
Y638807D01*
X933454D01*
X935993Y636268D01*
Y631190D01*
X933454Y628651D01*
X925836D01*
X930915D02*
X935993Y623573D01*
X941071D02*
X946150D01*
X943610D01*
Y638807D01*
X941071Y636268D01*
X953767D02*
X956306Y638807D01*
X961385D01*
X963924Y636268D01*
Y633729D01*
X961385Y631190D01*
X958846D01*
X961385D01*
X963924Y628651D01*
Y626112D01*
X961385Y623573D01*
X956306D01*
X953767Y626112D01*
X1040136Y909069D02*
Y924304D01*
X1047754D01*
X1050293Y921765D01*
Y916686D01*
X1047754Y914147D01*
X1040136D01*
X1045215D02*
X1050293Y909069D01*
X1055371D02*
X1060450D01*
X1057911D01*
Y924304D01*
X1055371Y921765D01*
X1078224Y909069D02*
X1068067D01*
X1078224Y919225D01*
Y921765D01*
X1075685Y924304D01*
X1070606D01*
X1068067Y921765D01*
X1041405Y934214D02*
Y949449D01*
X1049023D01*
X1051562Y946910D01*
Y941832D01*
X1049023Y939293D01*
X1041405D01*
X1046483D02*
X1051562Y934214D01*
X1056640D02*
X1061719D01*
X1059179D01*
Y949449D01*
X1056640Y946910D01*
X1069336Y934214D02*
X1074414D01*
X1071875D01*
Y949449D01*
X1069336Y946910D01*
X1038866Y959653D02*
Y974888D01*
X1046484D01*
X1049023Y972349D01*
Y967270D01*
X1046484Y964731D01*
X1038866D01*
X1043944D02*
X1049023Y959653D01*
X1054101D02*
X1059180D01*
X1056640D01*
Y974888D01*
X1054101Y972349D01*
X1066797D02*
X1069336Y974888D01*
X1074415D01*
X1076954Y972349D01*
Y962192D01*
X1074415Y959653D01*
X1069336D01*
X1066797Y962192D01*
Y972349D01*
X1026164Y990602D02*
Y1005837D01*
X1033782D01*
X1036321Y1003298D01*
Y998220D01*
X1033782Y995681D01*
X1026164D01*
X1031243D02*
X1036321Y990602D01*
X1041399Y993142D02*
X1043938Y990602D01*
X1049017D01*
X1051556Y993142D01*
Y1003298D01*
X1049017Y1005837D01*
X1043938D01*
X1041399Y1003298D01*
Y1000759D01*
X1043938Y998220D01*
X1051556D01*
X538484Y814072D02*
Y829307D01*
X546102D01*
X548641Y826768D01*
Y821690D01*
X546102Y819151D01*
X538484D01*
X543563D02*
X548641Y814072D01*
X553719Y826768D02*
X556258Y829307D01*
X561337D01*
X563876Y826768D01*
Y824229D01*
X561337Y821690D01*
X563876Y819151D01*
Y816612D01*
X561337Y814072D01*
X556258D01*
X553719Y816612D01*
Y819151D01*
X556258Y821690D01*
X553719Y824229D01*
Y826768D01*
X556258Y821690D02*
X561337D01*
X543564Y840742D02*
Y855977D01*
X551182D01*
X553721Y853438D01*
Y848360D01*
X551182Y845821D01*
X543564D01*
X548643D02*
X553721Y840742D01*
X558799Y855977D02*
X568956D01*
Y853438D01*
X558799Y843282D01*
Y840742D01*
X769617Y932184D02*
X754382D01*
Y939802D01*
X756922Y942341D01*
X762000D01*
X764539Y939802D01*
Y932184D01*
Y937262D02*
X769617Y942341D01*
X754382Y957576D02*
X756922Y952497D01*
X762000Y947419D01*
X767078D01*
X769617Y949958D01*
Y955037D01*
X767078Y957576D01*
X764539D01*
X762000Y955037D01*
Y947419D01*
X781054Y1005843D02*
Y1021077D01*
X788672D01*
X791211Y1018538D01*
Y1013460D01*
X788672Y1010921D01*
X781054D01*
X786133D02*
X791211Y1005843D01*
X806446Y1021077D02*
X796289D01*
Y1013460D01*
X801367Y1015999D01*
X803907D01*
X806446Y1013460D01*
Y1008382D01*
X803907Y1005843D01*
X798828D01*
X796289Y1008382D01*
X501654Y1049023D02*
Y1064258D01*
X509272D01*
X511811Y1061718D01*
Y1056640D01*
X509272Y1054101D01*
X501654D01*
X506732D02*
X511811Y1049023D01*
X524507D02*
Y1064258D01*
X516889Y1056640D01*
X527046D01*
X1041404Y740284D02*
Y755519D01*
X1049021D01*
X1051561Y752979D01*
Y747901D01*
X1049021Y745362D01*
X1041404D01*
X1046482D02*
X1051561Y740284D01*
X1056639Y752979D02*
X1059178Y755519D01*
X1064256D01*
X1066796Y752979D01*
Y750440D01*
X1064256Y747901D01*
X1061717D01*
X1064256D01*
X1066796Y745362D01*
Y742823D01*
X1064256Y740284D01*
X1059178D01*
X1056639Y742823D01*
X675644Y862333D02*
Y877568D01*
X683262D01*
X685801Y875028D01*
Y869950D01*
X683262Y867411D01*
X675644D01*
X680723D02*
X685801Y862333D01*
X701036D02*
X690879D01*
X701036Y872489D01*
Y875028D01*
X698497Y877568D01*
X693418D01*
X690879Y875028D01*
X410213Y1098552D02*
Y1113788D01*
X417831D01*
X420370Y1111248D01*
Y1106170D01*
X417831Y1103631D01*
X410213D01*
X425448Y1098552D02*
X430527D01*
X427988D01*
Y1113788D01*
X425448Y1111248D01*
X1156967Y929649D02*
X1141732D01*
X1156967Y939806D01*
X1141732D01*
Y944884D02*
Y955041D01*
Y949962D01*
X1156967D01*
X1144272Y970276D02*
X1141732Y967737D01*
Y962658D01*
X1144272Y960119D01*
X1154428D01*
X1156967Y962658D01*
Y967737D01*
X1154428Y970276D01*
X1156967Y985511D02*
Y975354D01*
X1146811Y985511D01*
X1144272D01*
X1141732Y982972D01*
Y977893D01*
X1144272Y975354D01*
X1155697Y690888D02*
X1140462D01*
X1155697Y701045D01*
X1140462D01*
Y706123D02*
Y716280D01*
Y711202D01*
X1155697D01*
X1143002Y731515D02*
X1140462Y728976D01*
Y723898D01*
X1143002Y721358D01*
X1153158D01*
X1155697Y723898D01*
Y728976D01*
X1153158Y731515D01*
X1155697Y736593D02*
Y741672D01*
Y739133D01*
X1140462D01*
X1143002Y736593D01*
X445785Y909323D02*
Y924557D01*
X450863Y919479D01*
X455942Y924557D01*
Y909323D01*
X463559D02*
X468637D01*
X471177Y911862D01*
Y916940D01*
X468637Y919479D01*
X463559D01*
X461020Y916940D01*
Y911862D01*
X463559Y909323D01*
X476255D02*
X483872D01*
X486412Y911862D01*
X483872Y914401D01*
X478794D01*
X476255Y916940D01*
X478794Y919479D01*
X486412D01*
X494029Y909323D02*
Y922018D01*
Y916940D01*
X491490D01*
X496568D01*
X494029D01*
Y922018D01*
X496568Y924557D01*
X511803Y909323D02*
X506725D01*
X504186Y911862D01*
Y916940D01*
X506725Y919479D01*
X511803D01*
X514343Y916940D01*
Y914401D01*
X504186D01*
X521960Y922018D02*
Y919479D01*
X519421D01*
X524499D01*
X521960D01*
Y911862D01*
X524499Y909323D01*
X532117D02*
X537195D01*
X534656D01*
Y924557D01*
X532117Y922018D01*
X692159Y633727D02*
Y618493D01*
X702316D01*
X717551Y633727D02*
X707394D01*
Y618493D01*
X717551D01*
X707394Y626110D02*
X712473D01*
X722629Y633727D02*
Y618493D01*
X730247D01*
X732786Y621032D01*
Y631188D01*
X730247Y633727D01*
X722629D01*
X737864Y631188D02*
X740403Y633727D01*
X745482D01*
X748021Y631188D01*
Y628649D01*
X745482Y626110D01*
X742943D01*
X745482D01*
X748021Y623571D01*
Y621032D01*
X745482Y618493D01*
X740403D01*
X737864Y621032D01*
X603259Y634997D02*
Y619762D01*
X613416D01*
X628651Y634997D02*
X618494D01*
Y619762D01*
X628651D01*
X618494Y627380D02*
X623573D01*
X633729Y634997D02*
Y619762D01*
X641347D01*
X643886Y622302D01*
Y632458D01*
X641347Y634997D01*
X633729D01*
X659121Y619762D02*
X648964D01*
X659121Y629919D01*
Y632458D01*
X656582Y634997D01*
X651503D01*
X648964Y632458D01*
X340368Y646428D02*
Y631193D01*
X350525D01*
X365760Y646428D02*
X355603D01*
Y631193D01*
X365760D01*
X355603Y638810D02*
X360682D01*
X370838Y646428D02*
Y631193D01*
X378456D01*
X380995Y633732D01*
Y643888D01*
X378456Y646428D01*
X370838D01*
X386073Y631193D02*
X391152D01*
X388613D01*
Y646428D01*
X386073Y643888D01*
X359153Y1256787D02*
X354074D01*
X356614D01*
Y1244091D01*
X354074Y1241552D01*
X351535D01*
X348996Y1244091D01*
X366770Y1251709D02*
X371849D01*
X374388Y1249169D01*
Y1241552D01*
X366770D01*
X364231Y1244091D01*
X366770Y1246630D01*
X374388D01*
X389623Y1251709D02*
X382005D01*
X379466Y1249169D01*
Y1244091D01*
X382005Y1241552D01*
X389623D01*
X394701D02*
Y1256787D01*
Y1246630D02*
X402319Y1251709D01*
X394701Y1246630D02*
X402319Y1241552D01*
X409936D02*
X415015D01*
X412476D01*
Y1256787D01*
X409936Y1254248D01*
X859795Y1027428D02*
X864874D01*
X862335D01*
Y1012193D01*
X859795D01*
X864874D01*
X882648Y1024888D02*
X880109Y1027428D01*
X875030D01*
X872491Y1024888D01*
Y1014732D01*
X875030Y1012193D01*
X880109D01*
X882648Y1014732D01*
X887726Y1012193D02*
X892805D01*
X890266D01*
Y1027428D01*
X887726Y1024888D01*
X434342Y762016D02*
X449577D01*
X441960D01*
Y772172D01*
X434342D01*
X449577D01*
Y784868D02*
Y779790D01*
X447038Y777251D01*
X441960D01*
X439421Y779790D01*
Y784868D01*
X441960Y787407D01*
X444499D01*
Y777251D01*
X439421Y795025D02*
Y800103D01*
X441960Y802643D01*
X449577D01*
Y795025D01*
X447038Y792486D01*
X444499Y795025D01*
Y802643D01*
X434342Y817878D02*
X449577D01*
Y810260D01*
X447038Y807721D01*
X441960D01*
X439421Y810260D01*
Y817878D01*
X449577Y830573D02*
Y825495D01*
X447038Y822956D01*
X441960D01*
X439421Y825495D01*
Y830573D01*
X441960Y833113D01*
X444499D01*
Y822956D01*
X439421Y838191D02*
X449577D01*
X444499D01*
X441960Y840730D01*
X439421Y843269D01*
Y845808D01*
X449577Y853426D02*
Y858504D01*
Y855965D01*
X434342D01*
X436882Y853426D01*
X539757Y1248408D02*
X529601D01*
Y1240790D01*
X534679D01*
X529601D01*
Y1233173D01*
X544836Y1243329D02*
Y1235712D01*
X547375Y1233173D01*
X554992D01*
Y1243329D01*
X560071Y1233173D02*
X567688D01*
X570228Y1235712D01*
X567688Y1238251D01*
X562610D01*
X560071Y1240790D01*
X562610Y1243329D01*
X570228D01*
X582923Y1233173D02*
X577845D01*
X575306Y1235712D01*
Y1240790D01*
X577845Y1243329D01*
X582923D01*
X585463Y1240790D01*
Y1238251D01*
X575306D01*
X590541Y1233173D02*
X595619D01*
X593080D01*
Y1248408D01*
X590541Y1245868D01*
X1064277Y1254757D02*
Y1239522D01*
X1071895D01*
X1074434Y1242061D01*
Y1252217D01*
X1071895Y1254757D01*
X1064277D01*
X1079512Y1239522D02*
X1084591D01*
X1082051D01*
Y1249678D01*
X1079512D01*
X1092208Y1239522D02*
X1099826D01*
X1102365Y1242061D01*
X1099826Y1244600D01*
X1094747D01*
X1092208Y1247139D01*
X1094747Y1249678D01*
X1102365D01*
X1107443Y1234443D02*
Y1249678D01*
X1115061D01*
X1117600Y1247139D01*
Y1242061D01*
X1115061Y1239522D01*
X1107443D01*
X1122678D02*
X1127757D01*
X1125218D01*
Y1254757D01*
X1122678D01*
X1137913Y1249678D02*
X1142992D01*
X1145531Y1247139D01*
Y1239522D01*
X1137913D01*
X1135374Y1242061D01*
X1137913Y1244600D01*
X1145531D01*
X1150609Y1249678D02*
Y1242061D01*
X1153148Y1239522D01*
X1160766D01*
Y1236982D01*
X1158227Y1234443D01*
X1155688D01*
X1160766Y1239522D02*
Y1249678D01*
X1165844Y1239522D02*
X1170923D01*
X1168384D01*
Y1254757D01*
X1165844Y1252217D01*
X776393Y856831D02*
X773854Y859370D01*
X768776D01*
X766237Y856831D01*
Y846674D01*
X768776Y844135D01*
X773854D01*
X776393Y846674D01*
X781472Y844135D02*
Y854292D01*
X786550Y859370D01*
X791628Y854292D01*
Y844135D01*
Y851752D01*
X781472D01*
X796707Y844135D02*
Y859370D01*
X804324D01*
X806863Y856831D01*
Y851752D01*
X804324Y849213D01*
X796707D01*
X811942Y846674D02*
X814481Y844135D01*
X819559D01*
X822098Y846674D01*
Y856831D01*
X819559Y859370D01*
X814481D01*
X811942Y856831D01*
Y854292D01*
X814481Y851752D01*
X822098D01*
X713742Y788676D02*
X711202Y786137D01*
Y781058D01*
X713742Y778519D01*
X723898D01*
X726438Y781058D01*
Y786137D01*
X723898Y788676D01*
X726438Y793754D02*
X716281D01*
X711202Y798832D01*
X716281Y803911D01*
X726438D01*
X718820D01*
Y793754D01*
X726438Y808989D02*
X711202D01*
Y816607D01*
X713742Y819146D01*
X718820D01*
X721359Y816607D01*
Y808989D01*
X713742Y824224D02*
X711202Y826763D01*
Y831842D01*
X713742Y834381D01*
X716281D01*
X718820Y831842D01*
X721359Y834381D01*
X723898D01*
X726438Y831842D01*
Y826763D01*
X723898Y824224D01*
X721359D01*
X718820Y826763D01*
X716281Y824224D01*
X713742D01*
X718820Y826763D02*
Y831842D01*
X980645Y777803D02*
X980312Y778469D01*
X979645Y779136D01*
X978979Y779469D01*
X977645D01*
X976979Y779136D01*
X976312Y778469D01*
X975979Y777803D01*
X975646Y776803D01*
Y775137D01*
X975979Y774137D01*
X976312Y773471D01*
X976979Y772804D01*
X977645Y772471D01*
X978979D01*
X979645Y772804D01*
X980312Y773471D01*
X980645Y774137D01*
X987943Y772471D02*
X985277Y779469D01*
X982611Y772471D01*
X983611Y774804D02*
X986944D01*
X989576Y775803D02*
X992576D01*
X993576Y776137D01*
X993909Y776470D01*
X994242Y777136D01*
Y778136D01*
X993909Y778803D01*
X993576Y779136D01*
X992576Y779469D01*
X989576D01*
Y772471D01*
X1000474Y779469D02*
X997141Y772471D01*
X995808Y779469D02*
X1000474D01*
X980812Y840033D02*
X980478Y840699D01*
X979812Y841366D01*
X979145Y841699D01*
X977812D01*
X977146Y841366D01*
X976479Y840699D01*
X976146Y840033D01*
X975813Y839033D01*
Y837367D01*
X976146Y836367D01*
X976479Y835701D01*
X977146Y835034D01*
X977812Y834701D01*
X979145D01*
X979812Y835034D01*
X980478Y835701D01*
X980812Y836367D01*
X988110Y834701D02*
X985444Y841699D01*
X982778Y834701D01*
X983778Y837034D02*
X987110D01*
X989743Y838033D02*
X992742D01*
X993742Y838367D01*
X994075Y838700D01*
X994409Y839366D01*
Y840366D01*
X994075Y841033D01*
X993742Y841366D01*
X992742Y841699D01*
X989743D01*
Y834701D01*
X999974Y840699D02*
X999641Y841366D01*
X998641Y841699D01*
X997975D01*
X996975Y841366D01*
X996308Y840366D01*
X995975Y838700D01*
Y837034D01*
X996308Y835701D01*
X996975Y835034D01*
X997975Y834701D01*
X998308D01*
X999308Y835034D01*
X999974Y835701D01*
X1000307Y836700D01*
Y837034D01*
X999974Y838033D01*
X999308Y838700D01*
X998308Y839033D01*
X997975D01*
X996975Y838700D01*
X996308Y838033D01*
X995975Y837034D01*
X800102Y1052836D02*
X797562Y1050297D01*
Y1045218D01*
X800102Y1042679D01*
X810258D01*
X812797Y1045218D01*
Y1050297D01*
X810258Y1052836D01*
X812797Y1057914D02*
X802641D01*
X797562Y1062992D01*
X802641Y1068071D01*
X812797D01*
X805180D01*
Y1057914D01*
X812797Y1073149D02*
X797562D01*
Y1080767D01*
X800102Y1083306D01*
X805180D01*
X807719Y1080767D01*
Y1073149D01*
X797562Y1098541D02*
Y1088384D01*
X805180D01*
X802641Y1093463D01*
Y1096002D01*
X805180Y1098541D01*
X810258D01*
X812797Y1096002D01*
Y1090923D01*
X810258Y1088384D01*
X735332Y1054506D02*
X732793Y1051967D01*
Y1046888D01*
X735332Y1044349D01*
X745488D01*
X748027Y1046888D01*
Y1051967D01*
X745488Y1054506D01*
X748027Y1059584D02*
X737871D01*
X732793Y1064662D01*
X737871Y1069741D01*
X748027D01*
X740410D01*
Y1059584D01*
X748027Y1074819D02*
X732793D01*
Y1082437D01*
X735332Y1084976D01*
X740410D01*
X742949Y1082437D01*
Y1074819D01*
X748027Y1097672D02*
X732793D01*
X740410Y1090054D01*
Y1100211D01*
X1046486Y718818D02*
X1043947Y721357D01*
X1038868D01*
X1036329Y718818D01*
Y708662D01*
X1038868Y706123D01*
X1043947D01*
X1046486Y708662D01*
X1051564Y706123D02*
Y716279D01*
X1056643Y721357D01*
X1061721Y716279D01*
Y706123D01*
Y713740D01*
X1051564D01*
X1066799Y706123D02*
Y721357D01*
X1074417D01*
X1076956Y718818D01*
Y713740D01*
X1074417Y711201D01*
X1066799D01*
X1082034Y718818D02*
X1084573Y721357D01*
X1089652D01*
X1092191Y718818D01*
Y716279D01*
X1089652Y713740D01*
X1087113D01*
X1089652D01*
X1092191Y711201D01*
Y708662D01*
X1089652Y706123D01*
X1084573D01*
X1082034Y708662D01*
X1042676Y883070D02*
X1040137Y885610D01*
X1035058D01*
X1032519Y883070D01*
Y872914D01*
X1035058Y870374D01*
X1040137D01*
X1042676Y872914D01*
X1047754Y870374D02*
Y880531D01*
X1052832Y885610D01*
X1057911Y880531D01*
Y870374D01*
Y877992D01*
X1047754D01*
X1062989Y870374D02*
Y885610D01*
X1070607D01*
X1073146Y883070D01*
Y877992D01*
X1070607Y875453D01*
X1062989D01*
X1088381Y870374D02*
X1078224D01*
X1088381Y880531D01*
Y883070D01*
X1085842Y885610D01*
X1080763D01*
X1078224Y883070D01*
X573323Y1018538D02*
X570784Y1021077D01*
X565706D01*
X563167Y1018538D01*
Y1008381D01*
X565706Y1005842D01*
X570784D01*
X573323Y1008381D01*
X580941Y1015998D02*
X586019D01*
X588558Y1013459D01*
Y1005842D01*
X580941D01*
X578402Y1008381D01*
X580941Y1010920D01*
X588558D01*
X593637Y1000763D02*
Y1015998D01*
X601254D01*
X603793Y1013459D01*
Y1008381D01*
X601254Y1005842D01*
X593637D01*
X443234Y636267D02*
Y623571D01*
X445773Y621032D01*
X450852D01*
X453391Y623571D01*
Y636267D01*
X458469Y615953D02*
Y631188D01*
X466087D01*
X468626Y628649D01*
Y623571D01*
X466087Y621032D01*
X458469D01*
X520709Y637537D02*
Y622303D01*
X528327D01*
X530866Y624842D01*
Y634998D01*
X528327Y637537D01*
X520709D01*
X538483Y622303D02*
X543562D01*
X546101Y624842D01*
Y629920D01*
X543562Y632459D01*
X538483D01*
X535944Y629920D01*
Y624842D01*
X538483Y622303D01*
X551179Y632459D02*
Y624842D01*
X553718Y622303D01*
X556258Y624842D01*
X558797Y622303D01*
X561336Y624842D01*
Y632459D01*
X566414Y622303D02*
Y632459D01*
X574032D01*
X576571Y629920D01*
Y622303D01*
X673111Y927103D02*
Y942337D01*
X680728D01*
X683267Y939798D01*
Y934720D01*
X680728Y932181D01*
X673111D01*
X678189D02*
X683267Y927103D01*
X695963D02*
X690885D01*
X688346Y929642D01*
Y934720D01*
X690885Y937259D01*
X695963D01*
X698503Y934720D01*
Y932181D01*
X688346D01*
X703581Y927103D02*
X711198D01*
X713738Y929642D01*
X711198Y932181D01*
X706120D01*
X703581Y934720D01*
X706120Y937259D01*
X713738D01*
X726433Y927103D02*
X721355D01*
X718816Y929642D01*
Y934720D01*
X721355Y937259D01*
X726433D01*
X728973Y934720D01*
Y932181D01*
X718816D01*
X736590Y939798D02*
Y937259D01*
X734051D01*
X739129D01*
X736590D01*
Y929642D01*
X739129Y927103D01*
X817887Y1220468D02*
Y1205232D01*
X825504D01*
X828043Y1207772D01*
Y1210311D01*
X825504Y1212850D01*
X817887D01*
X825504D01*
X828043Y1215389D01*
Y1217928D01*
X825504Y1220468D01*
X817887D01*
X843278Y1217928D02*
X840739Y1220468D01*
X835661D01*
X833122Y1217928D01*
Y1207772D01*
X835661Y1205232D01*
X840739D01*
X843278Y1207772D01*
X858513Y1205232D02*
X848357D01*
X858513Y1215389D01*
Y1217928D01*
X855974Y1220468D01*
X850896D01*
X848357Y1217928D01*
X849884Y1127247D02*
Y1112012D01*
X857502D01*
X860041Y1114551D01*
Y1117090D01*
X857502Y1119630D01*
X849884D01*
X857502D01*
X860041Y1122169D01*
Y1124708D01*
X857502Y1127247D01*
X849884D01*
X875276Y1124708D02*
X872737Y1127247D01*
X867658D01*
X865119Y1124708D01*
Y1114551D01*
X867658Y1112012D01*
X872737D01*
X875276Y1114551D01*
X880354Y1112012D02*
X885433D01*
X882893D01*
Y1127247D01*
X880354Y1124708D01*
D14*
X391160Y1018540D02*
Y1022772D01*
Y1020656D01*
X378464D01*
X380580Y1018540D01*
X365760Y1021924D02*
Y1013460D01*
X357296Y1021924D01*
X355180D01*
X353064Y1019808D01*
Y1015576D01*
X355180Y1013460D01*
X378464Y1113364D02*
Y1104900D01*
X384812D01*
X382696Y1109132D01*
Y1111248D01*
X384812Y1113364D01*
X389044D01*
X391160Y1111248D01*
Y1107016D01*
X389044Y1104900D01*
X353064Y1113364D02*
X355180Y1109132D01*
X359412Y1104900D01*
X363644D01*
X365760Y1107016D01*
Y1111248D01*
X363644Y1113364D01*
X361528D01*
X359412Y1111248D01*
Y1104900D01*
M02*
