M48
;Layer_Color=9474304
;FILE_FORMAT=4:4
METRIC,LZ
;TYPE=PLATED
T1F00S00C0.7000
T2F00S00C0.7100
T3F00S00C0.8000
T4F00S00C0.8500
T5F00S00C0.9000
T6F00S00C1.0000
T7F00S00C1.2000
T8F00S00C1.5000
T9F00S00C1.6000
T10F00S00C3.5000
%
T01
X00929081Y01056621
X00954481
X00979881
X01005281
X01030681
X01056081
X01081481
X01106881
X01132281
Y01209021
X01106881
X01081481
X01056081
X01030681
X01005281
X00979881
X00954481
X00929081
T02
X01148398Y00761313
Y00796813
X0114808Y0087777
Y0091327
T03
X0083693Y0066167
Y0068707
Y0071247
Y0073787
Y0076327
Y0078867
X0091393
Y0076327
Y0073787
Y0071247
Y0068707
Y0066167
X0049149Y0086487
X0047879Y0088392
X0050419
X0083693Y0089027
Y0086487
Y0083947
Y0081407
X0091393
Y0083947
Y0086487
Y0089027
Y0091567
Y0094107
Y0096647
Y0099187
X0083693
Y0096647
Y0094107
Y0091567
X0085598Y0107696
X0087503Y0106426
Y0108966
X0085979Y0115697
Y0118237
X0084074Y0116967
T04
X0079629Y0064135
X0083566Y0063373
X0091186
X0094996Y0065278
X0094869Y0067732
X0094869Y00744091
X0102489
X0102489Y0067732
X0102616Y0065278
X0079629Y0071755
X00762
Y0064135
X0067437Y0064643
Y0072263
X0065786Y0076073
X0065913Y0078994
X0058293
X0058166Y0076073
Y00817324
X0058293Y00843949
X005842Y0086741
X0058547Y0089027
Y009144
X0066167
Y0089027
X006604Y0086741
X0065913Y00843949
X0065786Y00817324
X0078232Y009144
Y009906
X0080772Y0099187
Y0091567
X0094869Y00915416
X0094869Y00943102
X0094742Y0096981
X0093599Y0099568
X0101219
X0102362Y0096981
X0102489Y00943102
X0102489Y00915416
Y00806302
X0094869
T05
X0061565Y0066675
X0064165
X0070104Y0066294
X0072704
X0036449Y0066772
Y0069372
X0036703Y0086233
Y0088773
Y0091313
Y0093853
Y0096393
Y0098933
X0036068Y0103886
Y0106426
Y0108966
X0038608
Y0106426
Y0103886
T06
X0096179Y00710326
X0101179
X0101306Y0077724
X0104307
X0109307
X0096306
X0078613Y007751
X0074676Y0077256
Y0082256
X0078613Y008251
X0077724Y0104093
Y0109093
X007112
Y0104093
X0062531Y0098298
X0057531
X0096306Y00879262
Y00837571
X0101306
X0104982Y008382
X0109982
X0101306Y00879262
T07
X004347Y0065584
X004797
X0051979
X0056479
Y0072084
X0051979
X004797
X004347
X006716Y0096012
Y0100512
X007366
Y0096012
T08
X0038354Y0075946
Y0080946
T09
X0057117Y0107061
X0059817
X0062517
X0054867Y0117602
X0077867
T10
X0045918Y0113918
X0048918Y0118618
X0042418
M30
